<?xml version="1.0" standalone="no"?>
<!DOCTYPE svg PUBLIC "-//W3C//DTD SVG 20010904//EN"
 "http://www.w3.org/TR/2001/REC-SVG-20010904/DTD/svg10.dtd">
<svg version="1.0" xmlns="http://www.w3.org/2000/svg"
 width="74.000000pt" height="60.000000pt" viewBox="0 0 74.000000 60.000000"
 preserveAspectRatio="xMidYMid meet">

<g transform="translate(0.000000,60.000000) scale(0.100000,-0.100000)"
fill="#000000" stroke="none">
<path d="M265 548 c-11 -6 -26 -20 -33 -30 -12 -16 -22 -18 -65 -13 -47 6 -54
4 -75 -18 -35 -37 -39 -85 -9 -129 l25 -36 -34 -7 c-29 -5 -34 -10 -34 -33 1
-36 35 -215 43 -229 5 -8 32 -10 81 -6 97 8 146 -2 146 -27 0 -16 7 -20 30
-20 26 0 30 3 30 29 0 29 0 29 70 33 81 4 120 31 120 81 0 24 3 28 18 22 9 -4
37 -14 61 -23 42 -14 45 -14 58 4 31 41 -6 234 -44 234 -8 0 -37 -16 -66 -35
l-52 -35 -8 40 -8 40 -50 0 c-46 0 -49 1 -39 19 16 30 12 76 -8 102 -18 21
-87 49 -122 49 -8 -1 -24 -6 -35 -12z m105 -88 c0 -22 -8 -48 -19 -61 -19 -23
-20 -23 -40 -5 -13 12 -28 16 -45 12 -16 -4 -26 -1 -29 8 -4 9 4 16 24 20 20
4 29 12 29 24 0 11 10 31 21 46 20 26 22 26 40 10 12 -11 19 -31 19 -54z
m-176 -6 c13 -35 3 -94 -16 -94 -6 0 -16 7 -22 16 -9 12 -17 13 -38 5 -28 -10
-38 -6 -38 16 0 8 12 13 30 13 20 0 33 6 37 18 15 41 37 53 47 26z m266 -82
c0 -5 -78 -23 -172 -41 -95 -18 -188 -37 -206 -41 -18 -5 -32 -5 -32 1 0 10 2
11 215 54 190 38 195 38 195 27z m211 -98 c11 -51 11 -94 -1 -94 -12 0 -30 66
-30 115 0 48 17 36 31 -21z"/>
</g>
</svg>
